<svg xmlns="http://www.w3.org/2000/svg" width="256" height="256" viewBox="0 0 100 100"><rect width="100" height="100" rx="20" fill="#000000"></rect><path fill="#fff" d="M25.54 73.22L12.69 73.22L12.69 26.78L25.11 26.78Q35.76 26.78 41.73 32.53Q47.69 38.28 47.69 49.79L47.69 49.79Q47.69 61.36 41.80 67.29Q35.91 73.22 25.54 73.22L25.54 73.22ZM20.93 33.46L20.93 66.54L24.55 66.54Q31.58 66.54 35.41 62.46Q39.24 58.38 39.24 49.79L39.24 49.79Q39.24 41.27 35.41 37.36Q31.58 33.46 24.55 33.46L24.55 33.46L20.93 33.46ZM70.63 74.07L70.63 74.07Q60.83 74.07 53.87 67.25L53.87 67.25L58.70 61.64Q61.18 63.99 64.38 65.44Q67.57 66.90 70.77 66.90L70.77 66.90Q74.74 66.90 76.80 65.27Q78.86 63.63 78.86 60.93L78.86 60.93Q78.86 58.02 76.84 56.74Q74.81 55.47 71.69 54.12L71.69 54.12L65.30 51.35Q61.89 49.93 58.91 47.02Q55.93 44.11 55.93 38.99L55.93 38.99Q55.93 33.46 60.33 29.69Q64.73 25.93 71.55 25.93L71.55 25.93Q75.60 25.93 79.36 27.53Q83.12 29.13 85.82 31.82L85.82 31.82L81.63 37.08Q79.43 35.23 76.98 34.17Q74.53 33.10 71.55 33.10L71.55 33.10Q68.21 33.10 66.22 34.56Q64.24 36.01 64.24 38.57L64.24 38.57Q64.24 41.27 66.51 42.62Q68.78 43.96 71.62 45.10L71.62 45.10L77.94 47.73Q82.06 49.50 84.68 52.38Q87.31 55.25 87.31 60.30L87.31 60.30Q87.31 65.97 82.87 70.02Q78.44 74.07 70.63 74.07Z"></path></svg>